<?xml version="1.0" standalone="no"?>
<!DOCTYPE svg PUBLIC "-//W3C//DTD SVG 20010904//EN"
 "http://www.w3.org/TR/2001/REC-SVG-20010904/DTD/svg10.dtd">
<svg version="1.0" xmlns="http://www.w3.org/2000/svg"
 width="150.000000pt" height="150.000000pt" viewBox="0 0 150.000000 150.000000"
 preserveAspectRatio="xMidYMid meet">

<g transform="translate(0.000000,150.000000) scale(0.100000,-0.100000)"
fill="#000000" stroke="none">
<path d="M282 1203 c2 -11 14 -19 29 -21 15 -2 37 -15 50 -28 24 -26 24 -27
22 -242 -1 -120 -5 -267 -9 -329 l-6 -112 -36 -3 c-19 -2 -37 -9 -40 -15 -3
-10 23 -13 107 -13 92 0 111 3 111 15 0 11 -11 15 -40 15 -63 0 -64 7 -57 299
4 140 10 258 15 263 5 5 55 -87 111 -203 l102 -211 -62 -105 c-72 -122 -82
-133 -116 -133 -15 0 -23 -5 -20 -12 5 -18 209 -18 215 0 2 8 -8 12 -32 12
-22 0 -36 5 -37 13 -4 43 13 97 50 158 l19 32 41 -82 c23 -44 43 -81 45 -81 2
0 18 36 36 80 18 44 36 82 40 85 7 4 67 -89 107 -164 13 -26 12 -26 -29 -31
-23 -3 -43 -11 -46 -17 -3 -10 28 -13 132 -13 114 0 136 2 136 15 0 9 -9 15
-25 15 -14 0 -35 10 -47 22 l-23 23 113 3 c90 2 112 5 112 17 0 11 -12 15 -40
15 -63 0 -64 7 -65 378 0 353 -2 342 58 342 18 0 27 4 25 13 -6 15 -145 22
-163 7 -7 -5 -59 -116 -115 -245 -126 -285 -129 -286 -130 -33 l0 167 52 3
c30 2 53 8 56 16 3 9 -33 12 -157 12 -136 0 -161 -2 -161 -15 0 -11 13 -15 54
-15 40 0 55 -4 60 -16 3 -9 6 -86 6 -172 0 -138 -3 -160 -19 -182 l-19 -24
-59 124 c-32 68 -88 183 -125 255 l-66 130 -82 3 c-74 3 -81 1 -78 -15z m776
-528 l-3 -200 -25 -3 c-22 -2 -33 11 -90 104 -36 59 -67 111 -68 116 -4 8 66
174 144 343 l28 60 8 -110 c4 -60 7 -200 6 -310z m-274 -10 c19 -34 19 -37 2
-73 l-18 -37 -30 58 c-28 56 -28 60 -13 84 19 28 30 23 59 -32z"/>
</g>
</svg>
